Poster: 
http://imgr.us/images/s7k5tmr8cpyi7zscdku6.jpg

Info:

Format : MPEG-PS
File size : 883 MiB
Duration : 2h 1mn
Overall bit rate mode : Variable
Overall bit rate : 1 015 Kbps

Video
ID : 224 (0xE0)
Format : MPEG Video
Format version : Version 2
Format profile : Main@Main
Format settings, BVOP : Yes
Format settings, Matrix : Default
Duration : 2h 1mn
Bit rate mode : Variable
Bit rate : 867 Kbps
Maximum bit rate : 9 672 Kbps
Width : 352 pixels
Height : 288 pixels
Display aspect ratio : 4:3
Frame rate : 25.000 fps
Standard : PAL
Color space : YUV
Chroma subsampling : 4:2:0
Bit depth : 8 bits
Scan type : Progressive
Compression mode : Lossy
Bits/(Pixel*Frame) : 0.342
Stream size : 754 MiB (85%)

Audio
ID : 192 (0xC0)
Format : MPEG Audio
Format version : Version 1
Format profile : Layer 2
Duration : 2h 1mn
Bit rate mode : Constant
Bit rate : 128 Kbps
Channel(s) : 2 channels
Sampling rate : 48.0 KHz
Compression mode : Lossy
Stream size : 111 MiB (13%)



Screens: 
http://imgr.us/images/e2zbvtpqga3sxou64ar9.jpg